<?xml version="1.0" encoding="UTF-8"?>
<svg xmlns="http://www.w3.org/2000/svg" version="1.1"><g id="cell-1" transform="translate(0, 0)"><g id="piece-1">
<polygon points="0,0 50,50 0,100" fill="#ff8000" />
<polygon points="0,0 50,50 100,0" fill="#ff8000" />
<polygon points="100,0 50,50 100,100" fill="#808080" />
<polygon points="0,100 50,50 100,100" fill="#808080" />
</g></g>
<g id="cell-2" transform="translate(100, 0)"><g id="piece-2">
<polygon points="0,0 50,50 0,100" fill="#00ffff" />
<polygon points="0,0 50,50 100,0" fill="#00ff00" />
<polygon points="100,0 50,50 100,100" fill="#808080" />
<polygon points="0,100 50,50 100,100" fill="#808080" />
</g></g>
<g id="cell-3" transform="translate(0, 100)"><g id="piece-3">
<polygon points="0,0 50,50 0,100" fill="#ff00ff" />
<polygon points="0,0 50,50 100,0" fill="#804000" />
<polygon points="100,0 50,50 100,100" fill="#808080" />
<polygon points="0,100 50,50 100,100" fill="#808080" />
</g></g>
<g id="cell-4" transform="translate(100, 100)"><g id="piece-4">
<polygon points="0,0 50,50 0,100" fill="#ffff00" />
<polygon points="0,0 50,50 100,0" fill="#804000" />
<polygon points="100,0 50,50 100,100" fill="#808080" />
<polygon points="0,100 50,50 100,100" fill="#808080" />
</g></g></svg>