<?xml version="1.0" encoding="UTF-8"?>
<svg xmlns="http://www.w3.org/2000/svg" version="1.1"><g id="piece-1" transform="translate(0, 0)"><g id="piece-1">
<polygon points="0,0 50,50 0,100" fill="#0000ff" />
<polygon points="0,0 50,50 100,0" fill="#0000ff" />
<polygon points="100,0 50,50 100,100" fill="#808080" />
<polygon points="0,100 50,50 100,100" fill="#808080" />
</g></g>
<g id="piece-2" transform="translate(100, 0)"><g id="piece-2">
<polygon points="0,0 50,50 0,100" fill="#00ff00" />
<polygon points="0,0 50,50 100,0" fill="#804000" />
<polygon points="100,0 50,50 100,100" fill="#808080" />
<polygon points="0,100 50,50 100,100" fill="#808080" />
</g></g>
<g id="piece-3" transform="translate(200, 0)"><g id="piece-3">
<polygon points="0,0 50,50 0,100" fill="#8000ff" />
<polygon points="0,0 50,50 100,0" fill="#00ffff" />
<polygon points="100,0 50,50 100,100" fill="#808080" />
<polygon points="0,100 50,50 100,100" fill="#808080" />
</g></g>
<g id="piece-4" transform="translate(300, 0)"><g id="piece-4">
<polygon points="0,0 50,50 0,100" fill="#00ff00" />
<polygon points="0,0 50,50 100,0" fill="#ff0000" />
<polygon points="100,0 50,50 100,100" fill="#808080" />
<polygon points="0,100 50,50 100,100" fill="#808080" />
</g></g>
<g id="piece-5" transform="translate(0, 100)"><g id="piece-5">
<polygon points="0,0 50,50 0,100" fill="#808080" />
<polygon points="0,0 50,50 100,0" fill="#00ffff" />
<polygon points="100,0 50,50 100,100" fill="#8000ff" />
<polygon points="0,100 50,50 100,100" fill="#ff00ff" />
</g></g>
<g id="piece-6" transform="translate(100, 100)"><g id="piece-6">
<polygon points="0,0 50,50 0,100" fill="#808080" />
<polygon points="0,0 50,50 100,0" fill="#00ff00" />
<polygon points="100,0 50,50 100,100" fill="#ffff00" />
<polygon points="0,100 50,50 100,100" fill="#ff00ff" />
</g></g>
<g id="piece-7" transform="translate(200, 100)"><g id="piece-7">
<polygon points="0,0 50,50 0,100" fill="#808080" />
<polygon points="0,0 50,50 100,0" fill="#00ffff" />
<polygon points="100,0 50,50 100,100" fill="#00ffff" />
<polygon points="0,100 50,50 100,100" fill="#804000" />
</g></g>
<g id="piece-8" transform="translate(300, 100)"><g id="piece-8">
<polygon points="0,0 50,50 0,100" fill="#808080" />
<polygon points="0,0 50,50 100,0" fill="#8000ff" />
<polygon points="100,0 50,50 100,100" fill="#0000ff" />
<polygon points="0,100 50,50 100,100" fill="#0000ff" />
</g></g>
<g id="piece-9" transform="translate(0, 200)"><g id="piece-9">
<polygon points="0,0 50,50 0,100" fill="#808080" />
<polygon points="0,0 50,50 100,0" fill="#ff8000" />
<polygon points="100,0 50,50 100,100" fill="#0000ff" />
<polygon points="0,100 50,50 100,100" fill="#ff00ff" />
</g></g>
<g id="piece-10" transform="translate(100, 200)"><g id="piece-10">
<polygon points="0,0 50,50 0,100" fill="#808080" />
<polygon points="0,0 50,50 100,0" fill="#804000" />
<polygon points="100,0 50,50 100,100" fill="#ff00ff" />
<polygon points="0,100 50,50 100,100" fill="#ff00ff" />
</g></g>
<g id="piece-11" transform="translate(200, 200)"><g id="piece-11">
<polygon points="0,0 50,50 0,100" fill="#808080" />
<polygon points="0,0 50,50 100,0" fill="#804000" />
<polygon points="100,0 50,50 100,100" fill="#00ffff" />
<polygon points="0,100 50,50 100,100" fill="#ffff00" />
</g></g>
<g id="piece-12" transform="translate(300, 200)"><g id="piece-12">
<polygon points="0,0 50,50 0,100" fill="#808080" />
<polygon points="0,0 50,50 100,0" fill="#ffff00" />
<polygon points="100,0 50,50 100,100" fill="#804000" />
<polygon points="0,100 50,50 100,100" fill="#0000ff" />
</g></g>
<g id="piece-13" transform="translate(0, 300)"><g id="piece-13">
<polygon points="0,0 50,50 0,100" fill="#ffff00" />
<polygon points="0,0 50,50 100,0" fill="#ff00ff" />
<polygon points="100,0 50,50 100,100" fill="#ff0000" />
<polygon points="0,100 50,50 100,100" fill="#8000ff" />
</g></g>
<g id="piece-14" transform="translate(100, 300)"><g id="piece-14">
<polygon points="0,0 50,50 0,100" fill="#ff8000" />
<polygon points="0,0 50,50 100,0" fill="#0000ff" />
<polygon points="100,0 50,50 100,100" fill="#ffff00" />
<polygon points="0,100 50,50 100,100" fill="#ff0000" />
</g></g>
<g id="piece-15" transform="translate(200, 300)"><g id="piece-15">
<polygon points="0,0 50,50 0,100" fill="#804000" />
<polygon points="0,0 50,50 100,0" fill="#ff00ff" />
<polygon points="100,0 50,50 100,100" fill="#ff00ff" />
<polygon points="0,100 50,50 100,100" fill="#ff0000" />
</g></g>
<g id="piece-16" transform="translate(300, 300)"><g id="piece-16">
<polygon points="0,0 50,50 0,100" fill="#00ff00" />
<polygon points="0,0 50,50 100,0" fill="#ff8000" />
<polygon points="100,0 50,50 100,100" fill="#804000" />
<polygon points="0,100 50,50 100,100" fill="#ff0000" />
</g></g></svg>