<?xml version="1.0" encoding="UTF-8"?>
<svg xmlns="http://www.w3.org/2000/svg" version="1.1" width="300" height="300">
<polygon points="0,0 50,50 0,100" fill="rgb(0,0,0)" stroke="black" stroke-width="1"/>
<polygon points="0,0 50,50 100,0" fill="rgb(0,0,255)" stroke="black" stroke-width="1"/>
<polygon points="100,0 50,50 100,100" fill="rgb(0,0,0)" stroke="black" stroke-width="1"/>
<polygon points="0,100 50,50 100,100" fill="rgb(0,0,0)" stroke="black" stroke-width="1"/>
<polygon points="0,0 50,50 0,100" fill="rgb(0,0,0)" stroke="black" stroke-width="1"/>
<polygon points="0,0 50,50 100,0" fill="rgb(0,0,0)" stroke="black" stroke-width="1"/>
<polygon points="100,0 50,50 100,100" fill="rgb(0,0,0)" stroke="black" stroke-width="1"/>
<polygon points="0,100 50,50 100,100" fill="rgb(0,0,255)" stroke="black" stroke-width="1"/>
<polygon points="0,0 50,50 0,100" fill="rgb(0,0,0)" stroke="black" stroke-width="1"/>
<polygon points="0,0 50,50 100,0" fill="rgb(0,0,0)" stroke="black" stroke-width="1"/>
<polygon points="100,0 50,50 100,100" fill="rgb(0,0,0)" stroke="black" stroke-width="1"/>
<polygon points="0,100 50,50 100,100" fill="rgb(0,0,0)" stroke="black" stroke-width="1"/>
<polygon points="0,0 50,50 0,100" fill="rgb(0,0,0)" stroke="black" stroke-width="1"/>
<polygon points="0,0 50,50 100,0" fill="rgb(0,0,0)" stroke="black" stroke-width="1"/>
<polygon points="100,0 50,50 100,100" fill="rgb(0,0,0)" stroke="black" stroke-width="1"/>
<polygon points="0,100 50,50 100,100" fill="rgb(0,0,0)" stroke="black" stroke-width="1"/>
<polygon points="0,0 50,50 0,100" fill="rgb(0,0,0)" stroke="black" stroke-width="1"/>
<polygon points="0,0 50,50 100,0" fill="rgb(255,255,0)" stroke="black" stroke-width="1"/>
<polygon points="100,0 50,50 100,100" fill="rgb(0,0,0)" stroke="black" stroke-width="1"/>
<polygon points="0,100 50,50 100,100" fill="rgb(0,0,0)" stroke="black" stroke-width="1"/>
<polygon points="0,0 50,50 0,100" fill="rgb(0,0,0)" stroke="black" stroke-width="1"/>
<polygon points="0,0 50,50 100,0" fill="rgb(0,0,0)" stroke="black" stroke-width="1"/>
<polygon points="100,0 50,50 100,100" fill="rgb(0,0,0)" stroke="black" stroke-width="1"/>
<polygon points="0,100 50,50 100,100" fill="rgb(255,255,0)" stroke="black" stroke-width="1"/>
<polygon points="0,0 50,50 0,100" fill="rgb(0,0,0)" stroke="black" stroke-width="1"/>
<polygon points="0,0 50,50 100,0" fill="rgb(0,0,0)" stroke="black" stroke-width="1"/>
<polygon points="100,0 50,50 100,100" fill="rgb(0,0,0)" stroke="black" stroke-width="1"/>
<polygon points="0,100 50,50 100,100" fill="rgb(0,0,0)" stroke="black" stroke-width="1"/>
<polygon points="0,0 50,50 0,100" fill="rgb(0,0,0)" stroke="black" stroke-width="1"/>
<polygon points="0,0 50,50 100,0" fill="rgb(0,0,0)" stroke="black" stroke-width="1"/>
<polygon points="100,0 50,50 100,100" fill="rgb(0,0,0)" stroke="black" stroke-width="1"/>
<polygon points="0,100 50,50 100,100" fill="rgb(0,0,0)" stroke="black" stroke-width="1"/>
<polygon points="0,0 50,50 0,100" fill="rgb(0,0,0)" stroke="black" stroke-width="1"/>
<polygon points="0,0 50,50 100,0" fill="rgb(0,0,0)" stroke="black" stroke-width="1"/>
<polygon points="100,0 50,50 100,100" fill="rgb(0,0,0)" stroke="black" stroke-width="1"/>
<polygon points="0,100 50,50 100,100" fill="rgb(0,0,0)" stroke="black" stroke-width="1"/>
</svg>
