<?xml version="1.0" encoding="UTF-8"?>
<svg xmlns="http://www.w3.org/2000/svg" version="1.1" width="200" height="200"><g transform="translate(0, 0)"><g>
<polygon points="0,0 50,50 0,100" fill="gray" />
<polygon points="0,0 50,50 100,0" fill="gray" />
<polygon points="100,0 50,50 100,100" fill="green" />
<polygon points="0,100 50,50 100,100" fill="purple" />
</g></g>
<g transform="translate(100, 0)"><g>
<polygon points="0,0 50,50 0,100" fill="green" />
<polygon points="0,0 50,50 100,0" fill="gray" />
<polygon points="100,0 50,50 100,100" fill="gray" />
<polygon points="0,100 50,50 100,100" fill="orange" />
</g></g>
<g transform="translate(0, 100)"><g>
<polygon points="0,0 50,50 0,100" fill="gray" />
<polygon points="0,0 50,50 100,0" fill="purple" />
<polygon points="100,0 50,50 100,100" fill="cyan" />
<polygon points="0,100 50,50 100,100" fill="gray" />
</g></g>
<g transform="translate(100, 100)"><g>
<polygon points="0,0 50,50 0,100" fill="cyan" />
<polygon points="0,0 50,50 100,0" fill="orange" />
<polygon points="100,0 50,50 100,100" fill="gray" />
<polygon points="0,100 50,50 100,100" fill="gray" />
</g></g></svg>